<svg width="160" height="160" viewBox="0 0 160 160" fill="none" xmlns="http://www.w3.org/2000/svg">
<rect width="160" height="160" rx="80" fill="#A32015"/>
<path d="M48.7676 111.822C49.8885 114.753 51.5269 117.463 53.6059 119.823C55.6133 122.104 58.0713 123.951 60.8275 125.25C63.5646 126.544 66.5601 127.21 69.5919 127.198H108.731L113.348 109.805H73.9398C72.6287 109.825 71.3313 109.538 70.1523 108.969C69.0115 108.397 67.9887 107.619 67.1369 106.673C66.2511 105.699 65.561 104.565 65.1039 103.333C64.6342 102.064 64.3969 100.72 64.4033 99.3678V60.4039C64.3891 59.0052 64.6263 57.6152 65.1039 56.2992C65.5505 55.0833 66.2423 53.9705 67.1369 53.0288C68.0037 52.1181 69.0242 51.3647 70.1523 50.8027C71.3314 50.2337 72.6289 49.948 73.9398 49.9684H108.737L113.202 32.4375H69.5919C66.56 32.4252 63.5644 33.0911 60.8275 34.3856C58.0707 35.6839 55.6125 37.5312 53.6059 39.8127C51.537 42.1544 49.8993 44.8391 48.7676 47.7439C47.601 50.712 47.0172 53.9593 47.0162 57.4856V102.153C46.9939 105.456 47.5877 108.734 48.7676 111.822Z" fill="white"/>
</svg>
